<svg xmlns="http://www.w3.org/2000/svg" style="display: block;" width="1536" height="746" xmlns="http://www.w3.org/2000/svg" version="1.1"><polygon style="fill: #44719a; stroke: #44719a;" stroke-linejoin="round" stroke-miterlimit="1" stroke-width="1" points="1742.46,713.722 1555.11,817.58 1635.36,823.122" /><polygon style="fill: #77adde; stroke: #77adde;" stroke-linejoin="round" stroke-miterlimit="1" stroke-width="1" points="1451.51,718.35 1555.11,817.58 1742.46,713.722" /><polygon style="fill: #6698c7; stroke: #6698c7;" stroke-linejoin="round" stroke-miterlimit="1" stroke-width="1" points="1689.85,597.993 1451.51,718.35 1742.46,713.722" /><polygon style="fill: #7eb5e7; stroke: #7eb5e7;" stroke-linejoin="round" stroke-miterlimit="1" stroke-width="1" points="1485.6,607.159 1451.51,718.35 1689.85,597.993" /><polygon style="fill: #84bcef; stroke: #84bcef;" stroke-linejoin="round" stroke-miterlimit="1" stroke-width="1" points="1636.66,489.412 1485.6,607.159 1689.85,597.993" /><polygon style="fill: #5f90bd; stroke: #5f90bd;" stroke-linejoin="round" stroke-miterlimit="1" stroke-width="1" points="1561.72,475.384 1485.6,607.159 1636.66,489.412" /><polygon style="fill: #5c8dba; stroke: #5c8dba;" stroke-linejoin="round" stroke-miterlimit="1" stroke-width="1" points="1699.66,363.249 1561.72,475.384 1636.66,489.412" /><polygon style="fill: #7fb6e8; stroke: #7fb6e8;" stroke-linejoin="round" stroke-miterlimit="1" stroke-width="1" points="1534.86,363.542 1561.72,475.384 1699.66,363.249" /><polygon style="fill: #7cb2e4; stroke: #7cb2e4;" stroke-linejoin="round" stroke-miterlimit="1" stroke-width="1" points="1680.12,249.98 1534.86,363.542 1699.66,363.249" /><polygon style="fill: #78aee0; stroke: #78aee0;" stroke-linejoin="round" stroke-miterlimit="1" stroke-width="1" points="1559.54,251.55 1534.86,363.542 1680.12,249.98" /><polygon style="fill: #77adde; stroke: #77adde;" stroke-linejoin="round" stroke-miterlimit="1" stroke-width="1" points="1707.47,138.02 1559.54,251.55 1680.12,249.98" /><polygon style="fill: #78aee0; stroke: #78aee0;" stroke-linejoin="round" stroke-miterlimit="1" stroke-width="1" points="1519.91,160.388 1559.54,251.55 1707.47,138.02" /><polygon style="fill: #72a6d7; stroke: #72a6d7;" stroke-linejoin="round" stroke-miterlimit="1" stroke-width="1" points="1641.51,45.2533 1519.91,160.388 1707.47,138.02" /><polygon style="fill: #7eb5e7; stroke: #7eb5e7;" stroke-linejoin="round" stroke-miterlimit="1" stroke-width="1" points="1523.06,26.1525 1519.91,160.388 1641.51,45.2533" /><polygon style="fill: #7db3e6; stroke: #7db3e6;" stroke-linejoin="round" stroke-miterlimit="1" stroke-width="1" points="1670.45,-69.4104 1523.06,26.1525 1641.51,45.2533" /><polygon style="fill: #7db3e5; stroke: #7db3e5;" stroke-linejoin="round" stroke-miterlimit="1" stroke-width="1" points="1549.86,-65.3452 1523.06,26.1525 1670.45,-69.4104" /><polygon style="fill: #80b7e9; stroke: #80b7e9;" stroke-linejoin="round" stroke-miterlimit="1" stroke-width="1" points="1451.51,718.35 1373.65,817.649 1555.11,817.58" /><polygon style="fill: #8ec7fc; stroke: #8ec7fc;" stroke-linejoin="round" stroke-miterlimit="1" stroke-width="1" points="1264.47,712.545 1373.65,817.649 1451.51,718.35" /><polygon style="fill: #9ad5ff; stroke: #9ad5ff;" stroke-linejoin="round" stroke-miterlimit="1" stroke-width="1" points="1485.6,607.159 1264.47,712.545 1451.51,718.35" /><polygon style="fill: #b1f0ff; stroke: #b1f0ff;" stroke-linejoin="round" stroke-miterlimit="1" stroke-width="1" points="1369.15,599.596 1264.47,712.545 1485.6,607.159" /><polygon style="fill: #a4e1ff; stroke: #a4e1ff;" stroke-linejoin="round" stroke-miterlimit="1" stroke-width="1" points="1561.72,475.384 1369.15,599.596 1485.6,607.159" /><polygon style="fill: #9edaff; stroke: #9edaff;" stroke-linejoin="round" stroke-miterlimit="1" stroke-width="1" points="1366.6,473.948 1369.15,599.596 1561.72,475.384" /><polygon style="fill: #99d4ff; stroke: #99d4ff;" stroke-linejoin="round" stroke-miterlimit="1" stroke-width="1" points="1534.86,363.542 1366.6,473.948 1561.72,475.384" /><polygon style="fill: #acebff; stroke: #acebff;" stroke-linejoin="round" stroke-miterlimit="1" stroke-width="1" points="1275.39,377.368 1366.6,473.948 1534.86,363.542" /><polygon style="fill: #a2dfff; stroke: #a2dfff;" stroke-linejoin="round" stroke-miterlimit="1" stroke-width="1" points="1559.54,251.55 1275.39,377.368 1534.86,363.542" /><polygon style="fill: #a9e7ff; stroke: #a9e7ff;" stroke-linejoin="round" stroke-miterlimit="1" stroke-width="1" points="1277.25,251.952 1275.39,377.368 1559.54,251.55" /><polygon style="fill: #98d3ff; stroke: #98d3ff;" stroke-linejoin="round" stroke-miterlimit="1" stroke-width="1" points="1519.91,160.388 1277.25,251.952 1559.54,251.55" /><polygon style="fill: #a7e4ff; stroke: #a7e4ff;" stroke-linejoin="round" stroke-miterlimit="1" stroke-width="1" points="1284.34,142.198 1277.25,251.952 1519.91,160.388" /><polygon style="fill: #7fb6e9; stroke: #7fb6e9;" stroke-linejoin="round" stroke-miterlimit="1" stroke-width="1" points="1523.06,26.1525 1284.34,142.198 1519.91,160.388" /><polygon style="fill: #83baed; stroke: #83baed;" stroke-linejoin="round" stroke-miterlimit="1" stroke-width="1" points="1303.35,48.3155 1284.34,142.198 1523.06,26.1525" /><polygon style="fill: #8ec8fd; stroke: #8ec8fd;" stroke-linejoin="round" stroke-miterlimit="1" stroke-width="1" points="1549.86,-65.3452 1303.35,48.3155 1523.06,26.1525" /><polygon style="fill: #91cbff; stroke: #91cbff;" stroke-linejoin="round" stroke-miterlimit="1" stroke-width="1" points="1323.97,-85.7561 1303.35,48.3155 1549.86,-65.3452" /><polygon style="fill: #97d3ff; stroke: #97d3ff;" stroke-linejoin="round" stroke-miterlimit="1" stroke-width="1" points="1264.47,712.545 1092.78,818.791 1373.65,817.649" /><polygon style="fill: #689bca; stroke: #689bca;" stroke-linejoin="round" stroke-miterlimit="1" stroke-width="1" points="1165.94,708.122 1092.78,818.791 1264.47,712.545" /><polygon style="fill: #71a5d6; stroke: #71a5d6;" stroke-linejoin="round" stroke-miterlimit="1" stroke-width="1" points="1369.15,599.596 1165.94,708.122 1264.47,712.545" /><polygon style="fill: #c3ffff; stroke: #c3ffff;" stroke-linejoin="round" stroke-miterlimit="1" stroke-width="1" points="1089.02,607.681 1165.94,708.122 1369.15,599.596" /><polygon style="fill: #acebff; stroke: #acebff;" stroke-linejoin="round" stroke-miterlimit="1" stroke-width="1" points="1366.6,473.948 1089.02,607.681 1369.15,599.596" /><polygon style="fill: #c0ffff; stroke: #c0ffff;" stroke-linejoin="round" stroke-miterlimit="1" stroke-width="1" points="1175.08,474.323 1089.02,607.681 1366.6,473.948" /><polygon style="fill: #c3ffff; stroke: #c3ffff;" stroke-linejoin="round" stroke-miterlimit="1" stroke-width="1" points="1275.39,377.368 1175.08,474.323 1366.6,473.948" /><polygon style="fill: #caffff; stroke: #caffff;" stroke-linejoin="round" stroke-miterlimit="1" stroke-width="1" points="1164.39,368.418 1175.08,474.323 1275.39,377.368" /><polygon style="fill: #beffff; stroke: #beffff;" stroke-linejoin="round" stroke-miterlimit="1" stroke-width="1" points="1277.25,251.952 1164.39,368.418 1275.39,377.368" /><polygon style="fill: #d6ffff; stroke: #d6ffff;" stroke-linejoin="round" stroke-miterlimit="1" stroke-width="1" points="1158.03,260.686 1164.39,368.418 1277.25,251.952" /><polygon style="fill: #bdfeff; stroke: #bdfeff;" stroke-linejoin="round" stroke-miterlimit="1" stroke-width="1" points="1284.34,142.198 1158.03,260.686 1277.25,251.952" /><polygon style="fill: #c9ffff; stroke: #c9ffff;" stroke-linejoin="round" stroke-miterlimit="1" stroke-width="1" points="1135.76,138.027 1158.03,260.686 1284.34,142.198" /><polygon style="fill: #96d0ff; stroke: #96d0ff;" stroke-linejoin="round" stroke-miterlimit="1" stroke-width="1" points="1303.35,48.3155 1135.76,138.027 1284.34,142.198" /><polygon style="fill: #a3e0ff; stroke: #a3e0ff;" stroke-linejoin="round" stroke-miterlimit="1" stroke-width="1" points="1177.69,28.5914 1135.76,138.027 1303.35,48.3155" /><polygon style="fill: #98d3ff; stroke: #98d3ff;" stroke-linejoin="round" stroke-miterlimit="1" stroke-width="1" points="1323.97,-85.7561 1177.69,28.5914 1303.35,48.3155" /><polygon style="fill: #8ec8fd; stroke: #8ec8fd;" stroke-linejoin="round" stroke-miterlimit="1" stroke-width="1" points="1191.61,-85.6223 1177.69,28.5914 1323.97,-85.7561" /><polygon style="fill: #71a5d5; stroke: #71a5d5;" stroke-linejoin="round" stroke-miterlimit="1" stroke-width="1" points="1165.94,708.122 981.482,825.678 1092.78,818.791" /><polygon style="fill: #9dd9ff; stroke: #9dd9ff;" stroke-linejoin="round" stroke-miterlimit="1" stroke-width="1" points="973.172,719.622 981.482,825.678 1165.94,708.122" /><polygon style="fill: #c9ffff; stroke: #c9ffff;" stroke-linejoin="round" stroke-miterlimit="1" stroke-width="1" points="1089.02,607.681 973.172,719.622 1165.94,708.122" /><polygon style="fill: #ceffff; stroke: #ceffff;" stroke-linejoin="round" stroke-miterlimit="1" stroke-width="1" points="900.446,587.538 973.172,719.622 1089.02,607.681" /><polygon style="fill: #d6ffff; stroke: #d6ffff;" stroke-linejoin="round" stroke-miterlimit="1" stroke-width="1" points="1175.08,474.323 900.446,587.538 1089.02,607.681" /><polygon style="fill: #f4ffff; stroke: #f4ffff;" stroke-linejoin="round" stroke-miterlimit="1" stroke-width="1" points="1008.82,494.991 900.446,587.538 1175.08,474.323" /><polygon style="fill: #ffffff; stroke: #ffffff;" stroke-linejoin="round" stroke-miterlimit="1" stroke-width="1" points="1164.39,368.418 1008.82,494.991 1175.08,474.323" /><polygon style="fill: #ffffff; stroke: #ffffff;" stroke-linejoin="round" stroke-miterlimit="1" stroke-width="1" points="959.338,362.613 1008.82,494.991 1164.39,368.418" /><polygon style="fill: #ffffff; stroke: #ffffff;" stroke-linejoin="round" stroke-miterlimit="1" stroke-width="1" points="1158.03,260.686 959.338,362.613 1164.39,368.418" /><polygon style="fill: #ffffff; stroke: #ffffff;" stroke-linejoin="round" stroke-miterlimit="1" stroke-width="1" points="1006.24,252.319 959.338,362.613 1158.03,260.686" /><polygon style="fill: #ffffff; stroke: #ffffff;" stroke-linejoin="round" stroke-miterlimit="1" stroke-width="1" points="1135.76,138.027 1006.24,252.319 1158.03,260.686" /><polygon style="fill: #ffffff; stroke: #ffffff;" stroke-linejoin="round" stroke-miterlimit="1" stroke-width="1" points="915.831,138.543 1006.24,252.319 1135.76,138.027" /><polygon style="fill: #c4ffff; stroke: #c4ffff;" stroke-linejoin="round" stroke-miterlimit="1" stroke-width="1" points="1177.69,28.5914 915.831,138.543 1135.76,138.027" /><polygon style="fill: #99d4ff; stroke: #99d4ff;" stroke-linejoin="round" stroke-miterlimit="1" stroke-width="1" points="992.479,26.1233 915.831,138.543 1177.69,28.5914" /><polygon style="fill: #a5e3ff; stroke: #a5e3ff;" stroke-linejoin="round" stroke-miterlimit="1" stroke-width="1" points="1191.61,-85.6223 992.479,26.1233 1177.69,28.5914" /><polygon style="fill: #bcfeff; stroke: #bcfeff;" stroke-linejoin="round" stroke-miterlimit="1" stroke-width="1" points="1001.62,-74.9997 992.479,26.1233 1191.61,-85.6223" /><polygon style="fill: #94cfff; stroke: #94cfff;" stroke-linejoin="round" stroke-miterlimit="1" stroke-width="1" points="973.172,719.622 716.316,820.515 981.482,825.678" /><polygon style="fill: #bafbff; stroke: #bafbff;" stroke-linejoin="round" stroke-miterlimit="1" stroke-width="1" points="824.271,711.871 716.316,820.515 973.172,719.622" /><polygon style="fill: #aae9ff; stroke: #aae9ff;" stroke-linejoin="round" stroke-miterlimit="1" stroke-width="1" points="900.446,587.538 824.271,711.871 973.172,719.622" /><polygon style="fill: #abe9ff; stroke: #abe9ff;" stroke-linejoin="round" stroke-miterlimit="1" stroke-width="1" points="786.053,607.626 824.271,711.871 900.446,587.538" /><polygon style="fill: #d5ffff; stroke: #d5ffff;" stroke-linejoin="round" stroke-miterlimit="1" stroke-width="1" points="1008.82,494.991 786.053,607.626 900.446,587.538" /><polygon style="fill: #cdffff; stroke: #cdffff;" stroke-linejoin="round" stroke-miterlimit="1" stroke-width="1" points="745.518,475.877 786.053,607.626 1008.82,494.991" /><polygon style="fill: #ffffff; stroke: #ffffff;" stroke-linejoin="round" stroke-miterlimit="1" stroke-width="1" points="959.338,362.613 745.518,475.877 1008.82,494.991" /><polygon style="fill: #e9ffff; stroke: #e9ffff;" stroke-linejoin="round" stroke-miterlimit="1" stroke-width="1" points="729.617,382.243 745.518,475.877 959.338,362.613" /><polygon style="fill: #ffffff; stroke: #ffffff;" stroke-linejoin="round" stroke-miterlimit="1" stroke-width="1" points="1006.24,252.319 729.617,382.243 959.338,362.613" /><polygon style="fill: #ffffff; stroke: #ffffff;" stroke-linejoin="round" stroke-miterlimit="1" stroke-width="1" points="791.093,268.181 729.617,382.243 1006.24,252.319" /><polygon style="fill: #ffffff; stroke: #ffffff;" stroke-linejoin="round" stroke-miterlimit="1" stroke-width="1" points="915.831,138.543 791.093,268.181 1006.24,252.319" /><polygon style="fill: #d5ffff; stroke: #d5ffff;" stroke-linejoin="round" stroke-miterlimit="1" stroke-width="1" points="715.294,152.822 791.093,268.181 915.831,138.543" /><polygon style="fill: #a9e7ff; stroke: #a9e7ff;" stroke-linejoin="round" stroke-miterlimit="1" stroke-width="1" points="992.479,26.1233 715.294,152.822 915.831,138.543" /><polygon style="fill: #b4f4ff; stroke: #b4f4ff;" stroke-linejoin="round" stroke-miterlimit="1" stroke-width="1" points="822.586,26.1248 715.294,152.822 992.479,26.1233" /><polygon style="fill: #c8ffff; stroke: #c8ffff;" stroke-linejoin="round" stroke-miterlimit="1" stroke-width="1" points="1001.62,-74.9997 822.586,26.1248 992.479,26.1233" /><polygon style="fill: #a9e7ff; stroke: #a9e7ff;" stroke-linejoin="round" stroke-miterlimit="1" stroke-width="1" points="772.781,-72.206 822.586,26.1248 1001.62,-74.9997" /><polygon style="fill: #a5e2ff; stroke: #a5e2ff;" stroke-linejoin="round" stroke-miterlimit="1" stroke-width="1" points="824.271,711.871 583.151,822.831 716.316,820.515" /><polygon style="fill: #97d2ff; stroke: #97d2ff;" stroke-linejoin="round" stroke-miterlimit="1" stroke-width="1" points="639.343,708.334 583.151,822.831 824.271,711.871" /><polygon style="fill: #9cd8ff; stroke: #9cd8ff;" stroke-linejoin="round" stroke-miterlimit="1" stroke-width="1" points="786.053,607.626 639.343,708.334 824.271,711.871" /><polygon style="fill: #9bd7ff; stroke: #9bd7ff;" stroke-linejoin="round" stroke-miterlimit="1" stroke-width="1" points="603.933,593.265 639.343,708.334 786.053,607.626" /><polygon style="fill: #99d5ff; stroke: #99d5ff;" stroke-linejoin="round" stroke-miterlimit="1" stroke-width="1" points="745.518,475.877 603.933,593.265 786.053,607.626" /><polygon style="fill: #91cbff; stroke: #91cbff;" stroke-linejoin="round" stroke-miterlimit="1" stroke-width="1" points="631.636,478.889 603.933,593.265 745.518,475.877" /><polygon style="fill: #adecff; stroke: #adecff;" stroke-linejoin="round" stroke-miterlimit="1" stroke-width="1" points="729.617,382.243 631.636,478.889 745.518,475.877" /><polygon style="fill: #b4f4ff; stroke: #b4f4ff;" stroke-linejoin="round" stroke-miterlimit="1" stroke-width="1" points="527.641,362.125 631.636,478.889 729.617,382.243" /><polygon style="fill: #c4ffff; stroke: #c4ffff;" stroke-linejoin="round" stroke-miterlimit="1" stroke-width="1" points="791.093,268.181 527.641,362.125 729.617,382.243" /><polygon style="fill: #a4e2ff; stroke: #a4e2ff;" stroke-linejoin="round" stroke-miterlimit="1" stroke-width="1" points="629.015,256.876 527.641,362.125 791.093,268.181" /><polygon style="fill: #b8f9ff; stroke: #b8f9ff;" stroke-linejoin="round" stroke-miterlimit="1" stroke-width="1" points="715.294,152.822 629.015,256.876 791.093,268.181" /><polygon style="fill: #95d0ff; stroke: #95d0ff;" stroke-linejoin="round" stroke-miterlimit="1" stroke-width="1" points="527.173,138.154 629.015,256.876 715.294,152.822" /><polygon style="fill: #8ac2f6; stroke: #8ac2f6;" stroke-linejoin="round" stroke-miterlimit="1" stroke-width="1" points="822.586,26.1248 527.173,138.154 715.294,152.822" /><polygon style="fill: #8fc9fe; stroke: #8fc9fe;" stroke-linejoin="round" stroke-miterlimit="1" stroke-width="1" points="627.895,26.3764 527.173,138.154 822.586,26.1248" /><polygon style="fill: #a3e0ff; stroke: #a3e0ff;" stroke-linejoin="round" stroke-miterlimit="1" stroke-width="1" points="772.781,-72.206 627.895,26.3764 822.586,26.1248" /><polygon style="fill: #86bef2; stroke: #86bef2;" stroke-linejoin="round" stroke-miterlimit="1" stroke-width="1" points="640.142,-69.0486 627.895,26.3764 772.781,-72.206" /><polygon style="fill: #89c1f6; stroke: #89c1f6;" stroke-linejoin="round" stroke-miterlimit="1" stroke-width="1" points="639.343,708.334 417.639,818.621 583.151,822.831" /><polygon style="fill: #88c1f5; stroke: #88c1f5;" stroke-linejoin="round" stroke-miterlimit="1" stroke-width="1" points="353.024,697.813 417.639,818.621 639.343,708.334" /><polygon style="fill: #8cc6fa; stroke: #8cc6fa;" stroke-linejoin="round" stroke-miterlimit="1" stroke-width="1" points="603.933,593.265 353.024,697.813 639.343,708.334" /><polygon style="fill: #85bcf0; stroke: #85bcf0;" stroke-linejoin="round" stroke-miterlimit="1" stroke-width="1" points="419.093,595.195 353.024,697.813 603.933,593.265" /><polygon style="fill: #95cfff; stroke: #95cfff;" stroke-linejoin="round" stroke-miterlimit="1" stroke-width="1" points="631.636,478.889 419.093,595.195 603.933,593.265" /><polygon style="fill: #8dc6fb; stroke: #8dc6fb;" stroke-linejoin="round" stroke-miterlimit="1" stroke-width="1" points="390.738,491.473 419.093,595.195 631.636,478.889" /><polygon style="fill: #96d0ff; stroke: #96d0ff;" stroke-linejoin="round" stroke-miterlimit="1" stroke-width="1" points="527.641,362.125 390.738,491.473 631.636,478.889" /><polygon style="fill: #81b8eb; stroke: #81b8eb;" stroke-linejoin="round" stroke-miterlimit="1" stroke-width="1" points="387.152,363.265 390.738,491.473 527.641,362.125" /><polygon style="fill: #8bc4f8; stroke: #8bc4f8;" stroke-linejoin="round" stroke-miterlimit="1" stroke-width="1" points="629.015,256.876 387.152,363.265 527.641,362.125" /><polygon style="fill: #83bbee; stroke: #83bbee;" stroke-linejoin="round" stroke-miterlimit="1" stroke-width="1" points="411.544,251.702 387.152,363.265 629.015,256.876" /><polygon style="fill: #8dc6fb; stroke: #8dc6fb;" stroke-linejoin="round" stroke-miterlimit="1" stroke-width="1" points="527.173,138.154 411.544,251.702 629.015,256.876" /><polygon style="fill: #89c2f6; stroke: #89c2f6;" stroke-linejoin="round" stroke-miterlimit="1" stroke-width="1" points="454.121,138.336 411.544,251.702 527.173,138.154" /><polygon style="fill: #89c1f6; stroke: #89c1f6;" stroke-linejoin="round" stroke-miterlimit="1" stroke-width="1" points="627.895,26.3764 454.121,138.336 527.173,138.154" /><polygon style="fill: #84bbef; stroke: #84bbef;" stroke-linejoin="round" stroke-miterlimit="1" stroke-width="1" points="428.081,44.1163 454.121,138.336 627.895,26.3764" /><polygon style="fill: #8bc4f8; stroke: #8bc4f8;" stroke-linejoin="round" stroke-miterlimit="1" stroke-width="1" points="640.142,-69.0486 428.081,44.1163 627.895,26.3764" /><polygon style="fill: #83baee; stroke: #83baee;" stroke-linejoin="round" stroke-miterlimit="1" stroke-width="1" points="370.032,-84.8643 428.081,44.1163 640.142,-69.0486" /><polygon style="fill: #7eb4e6; stroke: #7eb4e6;" stroke-linejoin="round" stroke-miterlimit="1" stroke-width="1" points="353.024,697.813 184.433,809.428 417.639,818.621" /><polygon style="fill: #78aee0; stroke: #78aee0;" stroke-linejoin="round" stroke-miterlimit="1" stroke-width="1" points="225.272,719.855 184.433,809.428 353.024,697.813" /><polygon style="fill: #71a5d6; stroke: #71a5d6;" stroke-linejoin="round" stroke-miterlimit="1" stroke-width="1" points="419.093,595.195 225.272,719.855 353.024,697.813" /><polygon style="fill: #73a8d9; stroke: #73a8d9;" stroke-linejoin="round" stroke-miterlimit="1" stroke-width="1" points="267.2,590.514 225.272,719.855 419.093,595.195" /><polygon style="fill: #7cb3e5; stroke: #7cb3e5;" stroke-linejoin="round" stroke-miterlimit="1" stroke-width="1" points="390.738,491.473 267.2,590.514 419.093,595.195" /><polygon style="fill: #6ca0cf; stroke: #6ca0cf;" stroke-linejoin="round" stroke-miterlimit="1" stroke-width="1" points="204.766,483.482 267.2,590.514 390.738,491.473" /><polygon style="fill: #6da1d1; stroke: #6da1d1;" stroke-linejoin="round" stroke-miterlimit="1" stroke-width="1" points="387.152,363.265 204.766,483.482 390.738,491.473" /><polygon style="fill: #72a7d7; stroke: #72a7d7;" stroke-linejoin="round" stroke-miterlimit="1" stroke-width="1" points="216.326,380.56 204.766,483.482 387.152,363.265" /><polygon style="fill: #74a9da; stroke: #74a9da;" stroke-linejoin="round" stroke-miterlimit="1" stroke-width="1" points="411.544,251.702 216.326,380.56 387.152,363.265" /><polygon style="fill: #78addf; stroke: #78addf;" stroke-linejoin="round" stroke-miterlimit="1" stroke-width="1" points="179.792,258.208 216.326,380.56 411.544,251.702" /><polygon style="fill: #81b9eb; stroke: #81b9eb;" stroke-linejoin="round" stroke-miterlimit="1" stroke-width="1" points="454.121,138.336 179.792,258.208 411.544,251.702" /><polygon style="fill: #86bef1; stroke: #86bef1;" stroke-linejoin="round" stroke-miterlimit="1" stroke-width="1" points="187.874,160.365 179.792,258.208 454.121,138.336" /><polygon style="fill: #7fb6e8; stroke: #7fb6e8;" stroke-linejoin="round" stroke-miterlimit="1" stroke-width="1" points="428.081,44.1163 187.874,160.365 454.121,138.336" /><polygon style="fill: #7eb5e7; stroke: #7eb5e7;" stroke-linejoin="round" stroke-miterlimit="1" stroke-width="1" points="164.035,38.8558 187.874,160.365 428.081,44.1163" /><polygon style="fill: #7fb6e9; stroke: #7fb6e9;" stroke-linejoin="round" stroke-miterlimit="1" stroke-width="1" points="370.032,-84.8643 164.035,38.8558 428.081,44.1163" /><polygon style="fill: #6597c6; stroke: #6597c6;" stroke-linejoin="round" stroke-miterlimit="1" stroke-width="1" points="229.943,-80.9487 164.035,38.8558 370.032,-84.8643" /><polygon style="fill: #7ab0e2; stroke: #7ab0e2;" stroke-linejoin="round" stroke-miterlimit="1" stroke-width="1" points="225.272,719.855 85.3124,811.719 184.433,809.428" /><polygon style="fill: #78aedf; stroke: #78aedf;" stroke-linejoin="round" stroke-miterlimit="1" stroke-width="1" points="7.21289,719.695 85.3124,811.719 225.272,719.855" /><polygon style="fill: #6799c8; stroke: #6799c8;" stroke-linejoin="round" stroke-miterlimit="1" stroke-width="1" points="267.2,590.514 7.21289,719.695 225.272,719.855" /><polygon style="fill: #6598c6; stroke: #6598c6;" stroke-linejoin="round" stroke-miterlimit="1" stroke-width="1" points="68.6521,600.623 7.21289,719.695 267.2,590.514" /><polygon style="fill: #72a6d7; stroke: #72a6d7;" stroke-linejoin="round" stroke-miterlimit="1" stroke-width="1" points="204.766,483.482 68.6521,600.623 267.2,590.514" /><polygon style="fill: #79afe1; stroke: #79afe1;" stroke-linejoin="round" stroke-miterlimit="1" stroke-width="1" points="41.1057,473.715 68.6521,600.623 204.766,483.482" /><polygon style="fill: #7ab0e2; stroke: #7ab0e2;" stroke-linejoin="round" stroke-miterlimit="1" stroke-width="1" points="216.326,380.56 41.1057,473.715 204.766,483.482" /><polygon style="fill: #6fa4d4; stroke: #6fa4d4;" stroke-linejoin="round" stroke-miterlimit="1" stroke-width="1" points="27.9806,361.984 41.1057,473.715 216.326,380.56" /><polygon style="fill: #73a8d9; stroke: #73a8d9;" stroke-linejoin="round" stroke-miterlimit="1" stroke-width="1" points="179.792,258.208 27.9806,361.984 216.326,380.56" /><polygon style="fill: #6b9fce; stroke: #6b9fce;" stroke-linejoin="round" stroke-miterlimit="1" stroke-width="1" points="13.298,252.775 27.9806,361.984 179.792,258.208" /><polygon style="fill: #71a5d6; stroke: #71a5d6;" stroke-linejoin="round" stroke-miterlimit="1" stroke-width="1" points="187.874,160.365 13.298,252.775 179.792,258.208" /><polygon style="fill: #70a4d4; stroke: #70a4d4;" stroke-linejoin="round" stroke-miterlimit="1" stroke-width="1" points="63.1366,138.298 13.298,252.775 187.874,160.365" /><polygon style="fill: #70a4d5; stroke: #70a4d5;" stroke-linejoin="round" stroke-miterlimit="1" stroke-width="1" points="164.035,38.8558 63.1366,138.298 187.874,160.365" /><polygon style="fill: #6a9dcc; stroke: #6a9dcc;" stroke-linejoin="round" stroke-miterlimit="1" stroke-width="1" points="6.5296,42.2584 63.1366,138.298 164.035,38.8558" /><polygon style="fill: #6396c4; stroke: #6396c4;" stroke-linejoin="round" stroke-miterlimit="1" stroke-width="1" points="229.943,-80.9487 6.5296,42.2584 164.035,38.8558" /><polygon style="fill: #71a6d6; stroke: #71a6d6;" stroke-linejoin="round" stroke-miterlimit="1" stroke-width="1" points="-1.61823,-85.7377 6.5296,42.2584 229.943,-80.9487" /><polygon style="fill: #70a5d5; stroke: #70a5d5;" stroke-linejoin="round" stroke-miterlimit="1" stroke-width="1" points="7.21289,719.695 -199.935,825.535 85.3124,811.719" /><polygon style="fill: #72a7d7; stroke: #72a7d7;" stroke-linejoin="round" stroke-miterlimit="1" stroke-width="1" points="-119.261,702.909 -199.935,825.535 7.21289,719.695" /><polygon style="fill: #699ccb; stroke: #699ccb;" stroke-linejoin="round" stroke-miterlimit="1" stroke-width="1" points="68.6521,600.623 -119.261,702.909 7.21289,719.695" /><polygon style="fill: #5f91be; stroke: #5f91be;" stroke-linejoin="round" stroke-miterlimit="1" stroke-width="1" points="-108.601,600.863 -119.261,702.909 68.6521,600.623" /><polygon style="fill: #5d8ebb; stroke: #5d8ebb;" stroke-linejoin="round" stroke-miterlimit="1" stroke-width="1" points="41.1057,473.715 -108.601,600.863 68.6521,600.623" /><polygon style="fill: #5484af; stroke: #5484af;" stroke-linejoin="round" stroke-miterlimit="1" stroke-width="1" points="-102.985,482.412 -108.601,600.863 41.1057,473.715" /><polygon style="fill: #5584b0; stroke: #5584b0;" stroke-linejoin="round" stroke-miterlimit="1" stroke-width="1" points="27.9806,361.984 -102.985,482.412 41.1057,473.715" /><polygon style="fill: #6496c5; stroke: #6496c5;" stroke-linejoin="round" stroke-miterlimit="1" stroke-width="1" points="-188.441,370.092 -102.985,482.412 27.9806,361.984" /><polygon style="fill: #6497c5; stroke: #6497c5;" stroke-linejoin="round" stroke-miterlimit="1" stroke-width="1" points="13.298,252.775 -188.441,370.092 27.9806,361.984" /><polygon style="fill: #81b9ec; stroke: #81b9ec;" stroke-linejoin="round" stroke-miterlimit="1" stroke-width="1" points="-116.01,259.623 -188.441,370.092 13.298,252.775" /><polygon style="fill: #88c0f4; stroke: #88c0f4;" stroke-linejoin="round" stroke-miterlimit="1" stroke-width="1" points="63.1366,138.298 -116.01,259.623 13.298,252.775" /><polygon style="fill: #5c8dba; stroke: #5c8dba;" stroke-linejoin="round" stroke-miterlimit="1" stroke-width="1" points="-187.75,156.78 -116.01,259.623 63.1366,138.298" /><polygon style="fill: #6193c1; stroke: #6193c1;" stroke-linejoin="round" stroke-miterlimit="1" stroke-width="1" points="6.5296,42.2584 -187.75,156.78 63.1366,138.298" /><polygon style="fill: #44719a; stroke: #44719a;" stroke-linejoin="round" stroke-miterlimit="1" stroke-width="1" points="-97.8149,42.6052 -187.75,156.78 6.5296,42.2584" /><polygon style="fill: #46739d; stroke: #46739d;" stroke-linejoin="round" stroke-miterlimit="1" stroke-width="1" points="-1.61823,-85.7377 -97.8149,42.6052 6.5296,42.2584" /><polygon style="fill: #5484b0; stroke: #5484b0;" stroke-linejoin="round" stroke-miterlimit="1" stroke-width="1" points="-147.557,-82.356 -97.8149,42.6052 -1.61823,-85.7377" /><circle fill="#b5d4f0" cx="966.276" cy="354.391" r="4" /><circle fill="none" stroke="#66a9e7" stroke-width="0.5" cx="966.276" cy="354.391" r="10" /><circle fill="#b5d4f0" cx="1030.69" cy="342.882" r="4" /><circle fill="none" stroke="#66a9e7" stroke-width="0.5" cx="1030.69" cy="342.882" r="10" /></svg>